<svg width="43" height="41" viewBox="0 0 43 41" fill="none" xmlns="http://www.w3.org/2000/svg">
<path d="M0 36.5136C0 42.5136 2.5 42.0136 7 35.5136L11.5 29.0136H37.5C37.5 29.0136 39.5 29.0137 41 27.5137C42.5 26.0137 42.5 23.5137 42.5 23.5137L42.5154 6.51357C42.5154 6.51357 42.7332 3.27417 41 1.51367C39.2668 -0.246832 36.5 0.0135717 36.5 0.0135717H6C6 0.0135717 2.99988 0.0137721 1.49988 2.01367C-0.00012207 4.01357 0 6.01367 0 6.01367V36.5136Z" fill="#FDFDFD"/>
<path d="M11 20H32" stroke="#4764F8" stroke-width="2"/>
<path d="M11 14H32" stroke="#4764F8" stroke-width="2"/>
<path d="M11 8H32" stroke="#4764F8" stroke-width="2"/>
</svg>
