<svg width="1920" height="437" viewBox="0 0 1920 437" fill="none" xmlns="http://www.w3.org/2000/svg">
<path d="M-2 154C98.3333 90.8338 341.9 0.900223 493.5 152.5C683 342 608 483 493.5 419.5C401.9 368.7 608 254 722.5 203C834.5 153.114 1006.9 128.7 856.5 225.5C668.5 346.5 888.5 373.5 1004.5 373.5C1097.3 373.5 1246.74 316.318 1286 295.5C1418 225.5 1408.9 52.8 1518.5 114C1655.5 190.5 1385.5 293.501 1660 305.5C1923.75 317.03 1871.61 109.121 1867 96.5C1840 22.5 1891 -30.9996 1921 26" stroke="#4764F8" stroke-width="3"/>
</svg>
